<svg data-v-fde0c5aa="" xmlns="http://www.w3.org/2000/svg" viewBox="0 0 300 300" class="iconAboveSlogan"><!----><defs data-v-fde0c5aa=""><!----></defs><rect data-v-fde0c5aa="" fill="transparent" x="0" y="0" width="300px" height="300px" class="logo-background-square"></rect><defs data-v-fde0c5aa=""><linearGradient data-v-fde0c5aa="" gradientTransform="rotate(25)" id="1e8e7489-a4f3-4561-8116-628600b0a402" x1="0%" y1="0%" x2="100%" y2="0%"><stop data-v-fde0c5aa="" offset="0%" stop-color="#6432E2" stop-opacity="1"></stop><stop data-v-fde0c5aa="" offset="100%" stop-color="#6432E2" stop-opacity="1"></stop></linearGradient></defs><g data-v-fde0c5aa="" id="d276a4a7-a408-4413-831a-7c455c93b6b2" fill="url(#1e8e7489-a4f3-4561-8116-628600b0a402)" transform="matrix(5.734189987182617,0,0,5.734189987182617,30.155432742577915,140.54318718736965)"><path d="M5.43 13.71L5.43 13.71Q3.89 13.71 2.78 13.08L2.78 13.08L2.78 13.08Q1.67 12.45 1.08 11.29L1.08 11.29L1.08 11.29Q0.49 10.14 0.49 8.60L0.49 8.60L0.49 8.60Q0.49 7.08 1.14 5.93L1.14 5.93L1.14 5.93Q1.79 4.77 2.95 4.14L2.95 4.14L2.95 4.14Q4.12 3.51 5.61 3.51L5.61 3.51L5.61 3.51Q6.37 3.51 7.08 3.67L7.08 3.67L7.08 3.67Q7.80 3.82 8.32 4.09L8.32 4.09L8.12 5.80L8.12 5.80Q6.90 5.24 5.61 5.24L5.61 5.24L5.61 5.24Q4.05 5.24 3.25 6.15L3.25 6.15L3.25 6.15Q2.45 7.07 2.45 8.57L2.45 8.57L2.45 8.57Q2.45 10.12 3.23 11.05L3.23 11.05L3.23 11.05Q4.02 11.98 5.50 11.98L5.50 11.98L5.50 11.98Q6.10 11.98 6.85 11.83L6.85 11.83L6.85 10.08L5.50 10.08L5.50 8.60L8.64 8.60L8.64 12.96L8.64 12.96Q8.09 13.29 7.25 13.50L7.25 13.50L7.25 13.50Q6.40 13.71 5.43 13.71L5.43 13.71ZM11.62 13.65L11.62 13.65Q10.75 13.65 10.17 13.08L10.17 13.08L10.17 13.08Q9.59 12.52 9.59 11.55L9.59 11.55L9.59 11.55Q9.59 10.64 10.25 10.09L10.25 10.09L10.25 10.09Q10.91 9.53 11.80 9.30L11.80 9.30L11.80 9.30Q12.70 9.07 13.52 9.04L13.52 9.04L13.52 9.04Q13.50 8.43 13.21 8.16L13.21 8.16L13.21 8.16Q12.92 7.90 12.26 7.90L12.26 7.90L12.26 7.90Q11.80 7.90 11.36 8.02L11.36 8.02L11.36 8.02Q10.92 8.15 10.35 8.43L10.35 8.43L10.19 7.01L10.19 7.01Q11.47 6.40 12.74 6.40L12.74 6.40L12.74 6.40Q13.97 6.40 14.62 7.07L14.62 7.07L14.62 7.07Q15.27 7.74 15.27 9.21L15.27 9.21L15.27 11.10L15.27 11.10Q15.27 11.63 15.32 11.87L15.32 11.87L15.32 11.87Q15.37 12.10 15.49 12.16L15.49 12.16L15.49 12.16Q15.61 12.22 15.89 12.22L15.89 12.22L16.11 12.22L15.96 13.65L15.33 13.65L15.33 13.65Q14.76 13.65 14.36 13.43L14.36 13.43L14.36 13.43Q13.97 13.22 13.76 12.84L13.76 12.84L13.76 12.84Q13.43 13.22 12.84 13.43L12.84 13.43L12.84 13.43Q12.26 13.65 11.62 13.65L11.62 13.65ZM12.35 12.32L12.35 12.32Q12.61 12.32 12.95 12.19L12.95 12.19L12.95 12.19Q13.29 12.05 13.54 11.82L13.54 11.82L13.54 10.22L13.54 10.22Q12.70 10.26 12.05 10.58L12.05 10.58L12.05 10.58Q11.41 10.91 11.41 11.48L11.41 11.48L11.41 11.48Q11.41 11.91 11.63 12.12L11.63 12.12L11.63 12.12Q11.86 12.32 12.35 12.32L12.35 12.32ZM17.08 5.45L17.08 3.71L18.82 3.71L18.82 5.45L17.08 5.45ZM17.08 13.51L17.08 6.51L18.82 6.51L18.82 13.51L17.08 13.51ZM21.95 13.65L21.95 13.65Q21.08 13.65 20.50 13.08L20.50 13.08L20.50 13.08Q19.92 12.52 19.92 11.55L19.92 11.55L19.92 11.55Q19.92 10.64 20.58 10.09L20.58 10.09L20.58 10.09Q21.24 9.53 22.13 9.30L22.13 9.30L22.13 9.30Q23.03 9.07 23.86 9.04L23.86 9.04L23.86 9.04Q23.83 8.43 23.54 8.16L23.54 8.16L23.54 8.16Q23.25 7.90 22.60 7.90L22.60 7.90L22.60 7.90Q22.13 7.90 21.69 8.02L21.69 8.02L21.69 8.02Q21.25 8.15 20.68 8.43L20.68 8.43L20.52 7.01L20.52 7.01Q21.80 6.40 23.07 6.40L23.07 6.40L23.07 6.40Q24.30 6.40 24.95 7.07L24.95 7.07L24.95 7.07Q25.61 7.74 25.61 9.21L25.61 9.21L25.61 11.10L25.61 11.10Q25.61 11.63 25.66 11.87L25.66 11.87L25.66 11.87Q25.70 12.10 25.82 12.16L25.82 12.16L25.82 12.16Q25.94 12.22 26.22 12.22L26.22 12.22L26.45 12.22L26.29 13.65L25.66 13.65L25.66 13.65Q25.09 13.65 24.70 13.43L24.70 13.43L24.70 13.43Q24.30 13.22 24.09 12.84L24.09 12.84L24.09 12.84Q23.76 13.22 23.18 13.43L23.18 13.43L23.18 13.43Q22.60 13.65 21.95 13.65L21.95 13.65ZM22.68 12.32L22.68 12.32Q22.95 12.32 23.28 12.19L23.28 12.19L23.28 12.19Q23.62 12.05 23.87 11.82L23.87 11.82L23.87 10.22L23.87 10.22Q23.03 10.26 22.39 10.58L22.39 10.58L22.39 10.58Q21.74 10.91 21.74 11.48L21.74 11.48L21.74 11.48Q21.74 11.91 21.97 12.12L21.97 12.12L21.97 12.12Q22.19 12.32 22.68 12.32L22.68 12.32ZM30.94 6.40L30.94 6.40Q32.24 6.40 32.91 7.27L32.91 7.27L32.91 7.27Q33.59 8.13 33.59 9.60L33.59 9.60L33.59 13.51L31.85 13.51L31.85 9.74L31.85 9.74Q31.85 8.76 31.52 8.29L31.52 8.29L31.52 8.29Q31.19 7.83 30.46 7.83L30.46 7.83L30.46 7.83Q29.67 7.83 29.15 8.43L29.15 8.43L29.15 13.51L27.41 13.51L27.41 6.51L29.04 6.51L29.06 7L29.06 7Q29.95 6.40 30.94 6.40L30.94 6.40ZM38.67 6.40L38.67 6.40Q39.97 6.40 40.64 7.27L40.64 7.27L40.64 7.27Q41.31 8.13 41.31 9.60L41.31 9.60L41.31 13.51L39.58 13.51L39.58 9.74L39.58 9.74Q39.58 8.76 39.25 8.29L39.25 8.29L39.25 8.29Q38.92 7.83 38.19 7.83L38.19 7.83L38.19 7.83Q37.39 7.83 36.88 8.43L36.88 8.43L36.88 13.51L35.14 13.51L35.14 6.51L36.76 6.51L36.79 7L36.79 7Q37.67 6.40 38.67 6.40L38.67 6.40Z"></path></g><defs data-v-fde0c5aa=""><linearGradient data-v-fde0c5aa="" gradientTransform="rotate(25)" id="ff5fa817-308b-4bbd-9421-9bb06bcb3912" x1="0%" y1="0%" x2="100%" y2="0%"><stop data-v-fde0c5aa="" offset="0%" stop-color="#E26432" stop-opacity="1"></stop><stop data-v-fde0c5aa="" offset="100%" stop-color="#6432E2" stop-opacity="1"></stop></linearGradient></defs><g data-v-fde0c5aa="" id="b26e7ce6-4de4-4c17-a393-1ddda0d6daa3" stroke="none" fill="url(#ff5fa817-308b-4bbd-9421-9bb06bcb3912)" transform="matrix(1.0780038833618164,0,0,1.0780038833618164,92.35940950828243,32.957392659661565)"><path d="M93 43.7l-10.08-3.29-3.191-4.021a12.135 12.135 0 0 0-.999-3.454c5.99-.345 11.057-4.737 12.201-10.697 1.375-7.153-3.326-14.092-10.478-15.466a13.267 13.267 0 0 0-2.504-.239h.001c-1.834 0-3.59.39-5.196 1.082h-6.315a2.383 2.383 0 1 0 0 4.765h.571a13.088 13.088 0 0 0-1.049 1.866H50.134a2.383 2.383 0 1 0 0 4.764H64.78a13.053 13.053 0 0 0 1.528 6.962c-1.82.224-3.579.861-5.123 1.859l-9.645 2.127a8.367 8.367 0 0 0-1.856.657 8.52 8.52 0 0 0-3.151 2.069l-9.038 9.338c-.111.116-.21.239-.314.359a2.35 2.35 0 0 0-.799-.148h-8.157a2.382 2.382 0 1 0 0 4.765h6.907a8.786 8.786 0 0 0-.07 1.218 8.625 8.625 0 0 0 2.657 6.085 8.642 8.642 0 0 0 8.147 2.159 9.338 9.338 0 0 0 .085 2.952 9.274 9.274 0 0 0 1.636 3.779l-5.926 11.002-9.169 9.667H19.025a2.382 2.382 0 1 0 0 4.765h9.655a9.044 9.044 0 0 0-.57 1.637H17.366a2.382 2.382 0 1 0 0 4.765h10.838a9.224 9.224 0 0 0 2.591 4.247 9.271 9.271 0 0 0 6.342 2.5 9.33 9.33 0 0 0 6.804-2.961l10.89-11.481a9.135 9.135 0 0 0 2.427-2.873l5.52-10.247.916.627-6.073 10.105-.019.03-.018.03a9.224 9.224 0 0 0-.942 7.057 9.234 9.234 0 0 0 4.328 5.656 9.302 9.302 0 0 0 4.654 1.251 9.334 9.334 0 0 0 8.032-4.605l9.315-15.496a8.709 8.709 0 0 0 1.138-1.345c2.889-4.232 1.796-10.029-2.438-12.921L71.52 57.657l1.343-2.724a8.422 8.422 0 0 0 2.434 1.25l12.354 4.031a8.7 8.7 0 0 0 2.681.425 8.658 8.658 0 0 0 8.259-6.01c1.471-4.555-1.037-9.457-5.591-10.929zM69.456 18.11a8.662 8.662 0 0 1 8.494-7.029 8.658 8.658 0 0 1 8.514 10.299 8.661 8.661 0 0 1-10.139 6.87 8.66 8.66 0 0 1-6.869-10.14zM53.251 82.306a4.694 4.694 0 0 1-1.455 1.616L40.613 95.713a4.732 4.732 0 0 1-3.475 1.512 4.748 4.748 0 0 1-3.473-7.988L45.38 76.885l5.825-10.813 7.824 5.51-5.778 10.724zM94.264 53.23a4.135 4.135 0 0 1-5.201 2.66l-12.369-4.035a4.079 4.079 0 0 1-1.67-1.055 4.073 4.073 0 0 1-.806-.75l-2.478-3.121-6.045 12.256 13.411 9.173a4.751 4.751 0 0 1 1.245 6.602c-.262.384-.584.7-.927.981l-9.682 16.105a4.75 4.75 0 1 1-8.221-4.758l8.283-13.782-8.632-5.904-7.887-5.395-.874-.598a4.747 4.747 0 0 1-1.244-6.601c.066-.099.54-1.529.833-2.138l5.474-11.102-2.42.533-8.337 8.611a4.127 4.127 0 0 1-2.979 1.266 4.13 4.13 0 0 1-2.975-6.994l9.047-9.347a4.09 4.09 0 0 1 1.678-1.038c.32-.171.659-.316 1.031-.399l10.545-2.326a7.582 7.582 0 0 1 4.706-1.644 7.49 7.49 0 0 1 3.249.743c2.741 1.318 4.313 4.077 4.265 6.932l4.924 6.204 11.393 3.719a4.135 4.135 0 0 1 2.663 5.202zM57 9.995a2.383 2.383 0 0 1 2.383-2.381h.595a2.382 2.382 0 0 1 0 4.765h-.595A2.384 2.384 0 0 1 57 9.995zM18.787 44.614a2.382 2.382 0 0 1 2.382-2.381h.596a2.382 2.382 0 1 1 0 4.765h-.596a2.382 2.382 0 0 1-2.382-2.384zm12.416 6.456a2.381 2.381 0 0 1-2.382 2.382h-.596a2.381 2.381 0 1 1 0-4.765h.596a2.382 2.382 0 0 1 2.382 2.383zM13.288 92.644a2.383 2.383 0 0 1-2.383 2.384h-.595a2.382 2.382 0 0 1 0-4.765h.595a2.382 2.382 0 0 1 2.383 2.381zm17.078-15.196h.595a2.382 2.382 0 1 1 0 4.765h-.595a2.383 2.383 0 0 1 0-4.765zm25.902 17.578a2.382 2.382 0 0 1-2.381 2.384h-.595a2.383 2.383 0 1 1 0-4.765h.595a2.382 2.382 0 0 1 2.381 2.381zm-35.924 4.072a2.382 2.382 0 0 1-2.381 2.384h-.597a2.382 2.382 0 1 1 0-4.765h.597a2.382 2.382 0 0 1 2.381 2.381zm11.128-60.846a2.382 2.382 0 0 1 2.384-2.381h.595a2.382 2.382 0 0 1 0 4.764h-.595a2.38 2.38 0 0 1-2.384-2.383z"></path></g><defs data-v-fde0c5aa=""><!----></defs><g data-v-fde0c5aa="" id="888cecf9-5ca1-47c4-8019-b3d16f95ba5b" fill="#E26432" transform="matrix(3.023634433746338,0,0,3.023634433746338,61.800580544499766,218.545972074661)"><path d="M2.90 13.51L0.14 3.71L2.00 3.71L3.96 10.67L6.15 3.71L7.39 3.71L9.66 10.49L11.54 3.71L13.40 3.71L10.53 13.51L8.95 13.51L6.76 6.97L4.59 13.51L2.90 13.51ZM18.80 13.71L18.80 13.71Q17.42 13.71 16.32 13.07L16.32 13.07L16.32 13.07Q15.22 12.43 14.60 11.28L14.60 11.28L14.60 11.28Q13.97 10.12 13.97 8.61L13.97 8.61L13.97 8.61Q13.97 7.10 14.60 5.94L14.60 5.94L14.60 5.94Q15.22 4.79 16.32 4.15L16.32 4.15L16.32 4.15Q17.42 3.51 18.80 3.51L18.80 3.51L18.80 3.51Q20.19 3.51 21.29 4.15L21.29 4.15L21.29 4.15Q22.39 4.79 23.01 5.94L23.01 5.94L23.01 5.94Q23.63 7.10 23.63 8.61L23.63 8.61L23.63 8.61Q23.63 10.12 23.01 11.28L23.01 11.28L23.01 11.28Q22.39 12.43 21.29 13.07L21.29 13.07L21.29 13.07Q20.19 13.71 18.80 13.71L18.80 13.71ZM18.80 11.97L18.80 11.97Q20.23 11.97 20.99 11.05L20.99 11.05L20.99 11.05Q21.76 10.12 21.76 8.61L21.76 8.61L21.76 8.61Q21.76 7.10 20.99 6.17L20.99 6.17L20.99 6.17Q20.23 5.25 18.80 5.25L18.80 5.25L18.80 5.25Q17.37 5.25 16.61 6.17L16.61 6.17L16.61 6.17Q15.85 7.10 15.85 8.61L15.85 8.61L15.85 8.61Q15.85 10.12 16.61 11.05L16.61 11.05L16.61 11.05Q17.37 11.97 18.80 11.97L18.80 11.97ZM25.20 13.51L25.20 3.71L28.78 3.71L28.78 3.71Q30.35 3.71 31.25 4.46L31.25 4.46L31.25 4.46Q32.16 5.21 32.16 6.68L32.16 6.68L32.16 6.68Q32.16 7.70 31.72 8.35L31.72 8.35L31.72 8.35Q31.29 9.00 30.49 9.39L30.49 9.39L32.70 13.51L30.70 13.51L28.81 9.87L28.74 9.87L26.99 9.87L26.99 13.51L25.20 13.51ZM26.99 8.37L28.31 8.37L28.31 8.37Q30.28 8.37 30.28 6.78L30.28 6.78L30.28 6.78Q30.28 6.01 29.83 5.61L29.83 5.61L29.83 5.61Q29.39 5.21 28.38 5.21L28.38 5.21L26.99 5.21L26.99 8.37ZM33.96 13.51L33.96 3.71L35.76 3.71L35.76 13.51L33.96 13.51ZM39.52 13.51L35.90 8.33L39.52 3.71L41.62 3.71L37.97 8.33L41.62 13.51L39.52 13.51ZM42.74 13.51L42.74 3.71L49.01 3.71L49.01 5.45L44.58 5.45L44.58 7.53L48.02 7.53L48.02 9.27L44.58 9.27L44.58 11.77L49.15 11.77L49.15 13.51L42.74 13.51ZM50.69 13.51L50.69 3.71L54.28 3.71L54.28 3.71Q55.85 3.71 56.75 4.46L56.75 4.46L56.75 4.46Q57.65 5.21 57.65 6.68L57.65 6.68L57.65 6.68Q57.65 7.70 57.22 8.35L57.22 8.35L57.22 8.35Q56.78 9.00 55.99 9.39L55.99 9.39L58.20 13.51L56.20 13.51L54.31 9.87L54.24 9.87L52.49 9.87L52.49 13.51L50.69 13.51ZM52.49 8.37L53.80 8.37L53.80 8.37Q55.78 8.37 55.78 6.78L55.78 6.78L55.78 6.78Q55.78 6.01 55.33 5.61L55.33 5.61L55.33 5.61Q54.88 5.21 53.87 5.21L53.87 5.21L52.49 5.21L52.49 8.37Z"></path></g></svg>